<svg xmlns="http://www.w3.org/2000/svg" width="1200" height="675" viewBox="0 0 1200 675"><defs><radialGradient id="bg"><stop stop-color="#1b3b50"/><stop offset="1" stop-color="#0d1526"/></radialGradient><pattern id="grid" width="50" height="50" patternUnits="userSpaceOnUse"><path d="M50 0H0V50" stroke="#8baaff" stroke-opacity=".065" fill="none"/></pattern></defs><rect width="1200" height="675" fill="url(#bg)"/><rect width="1200" height="675" fill="url(#grid)"/><circle cx="860" cy="320" r="255" stroke="#456787" stroke-opacity=".35" fill="none"/><circle cx="860" cy="320" r="285" stroke="#456787" stroke-opacity=".15" fill="none"/><text x="64" y="78" font-family="DejaVu Sans,Arial,sans-serif" font-weight="600" font-size="18" fill="#72e7cf">COINVOYU / TAIWAN</text><text x="64" y="260" font-family="DejaVu Sans,Arial,sans-serif" font-weight="600" font-size="44.285714285714285" fill="#f2f6ff">BINANCE / GATE</text><text x="64" y="325" font-family="DejaVu Sans,Arial,sans-serif" font-weight="600" font-size="18" fill="#9fb6d0">COMPARE MARKETS</text><path d="M64 365h85" stroke="#72e7cf" stroke-width="4"/><text x="64" y="560" font-family="DejaVu Sans,Arial,sans-serif" font-weight="600" font-size="14" fill="#839ab4">LEARN  ·  UNDERSTAND  ·  VERIFY</text><text x="64" y="609" font-family="DejaVu Sans,Arial,sans-serif" font-weight="600" font-size="14" fill="#839ab4">10 / EDITORIAL GUIDE</text><rect x="590" y="230" width="225" height="140" rx="17" fill="#162a40" stroke="#efc778" stroke-width="2"/><text x="610" y="310" font-family="DejaVu Sans,Arial,sans-serif" font-weight="600" font-size="28" fill="#efc778">BINANCE</text><rect x="850" y="230" width="225" height="140" rx="17" fill="#162a40" stroke="#a8afff" stroke-width="2"/><text x="870" y="310" font-family="DejaVu Sans,Arial,sans-serif" font-weight="600" font-size="28" fill="#a8afff">GATE</text><text x="810" y="435" font-family="DejaVu Sans,Arial,sans-serif" font-weight="600" font-size="24" fill="#72e7cf">COMPARE</text><path d="M670 405L1000 405" stroke="#4d698a" stroke-width="2" fill="none"/><path d="M655 125L655 210" stroke="#72e7cf" stroke-width="2" fill="none"/><rect x="645" y="150" width="20" height="40" rx="2" fill="#72e7cf"/><path d="M695 109L695 209" stroke="#a8afff" stroke-width="2" fill="none"/><rect x="685" y="134" width="20" height="55" rx="2" fill="#a8afff"/><path d="M735 93L735 208" stroke="#72e7cf" stroke-width="2" fill="none"/><rect x="725" y="118" width="20" height="70" rx="2" fill="#72e7cf"/><path d="M775 77L775 207" stroke="#a8afff" stroke-width="2" fill="none"/><rect x="765" y="102" width="20" height="85" rx="2" fill="#a8afff"/><path d="M815 61L815 206" stroke="#72e7cf" stroke-width="2" fill="none"/><rect x="805" y="86" width="20" height="100" rx="2" fill="#72e7cf"/></svg>