<svg xmlns="http://www.w3.org/2000/svg" width="1200" height="675" viewBox="0 0 1200 675"><defs><radialGradient id="bg"><stop stop-color="#1b3b50"/><stop offset="1" stop-color="#0d1526"/></radialGradient><pattern id="grid" width="50" height="50" patternUnits="userSpaceOnUse"><path d="M50 0H0V50" stroke="#8baaff" stroke-opacity=".065" fill="none"/></pattern></defs><rect width="1200" height="675" fill="url(#bg)"/><rect width="1200" height="675" fill="url(#grid)"/><circle cx="860" cy="320" r="255" stroke="#456787" stroke-opacity=".35" fill="none"/><circle cx="860" cy="320" r="285" stroke="#456787" stroke-opacity=".15" fill="none"/><text x="64" y="78" font-family="DejaVu Sans,Arial,sans-serif" font-weight="600" font-size="18" fill="#72e7cf">COINVOYU / TAIWAN</text><text x="64" y="260" font-family="DejaVu Sans,Arial,sans-serif" font-weight="600" font-size="44.285714285714285" fill="#f2f6ff">SPOT / FUTURES</text><text x="64" y="325" font-family="DejaVu Sans,Arial,sans-serif" font-weight="600" font-size="18" fill="#9fb6d0">OWNERSHIP &amp; EXPOSURE</text><path d="M64 365h85" stroke="#72e7cf" stroke-width="4"/><text x="64" y="560" font-family="DejaVu Sans,Arial,sans-serif" font-weight="600" font-size="14" fill="#839ab4">LEARN  ·  UNDERSTAND  ·  VERIFY</text><text x="64" y="609" font-family="DejaVu Sans,Arial,sans-serif" font-weight="600" font-size="14" fill="#839ab4">16 / EDITORIAL GUIDE</text><circle cx="665" cy="285" r="62" fill="#efc77818" stroke="#efc778" stroke-width="3"/><circle cx="665" cy="285" r="52" fill="none" stroke="#efc77855"/><text x="634" y="298" font-family="DejaVu Sans,Arial,sans-serif" font-weight="600" font-size="40.300000000000004" fill="#efc778">BTC</text><path d="M865 195L865 280" stroke="#a8afff" stroke-width="2" fill="none"/><rect x="855" y="220" width="20" height="40" rx="2" fill="#a8afff"/><path d="M905 179L905 279" stroke="#a8afff" stroke-width="2" fill="none"/><rect x="895" y="204" width="20" height="55" rx="2" fill="#a8afff"/><path d="M945 163L945 278" stroke="#a8afff" stroke-width="2" fill="none"/><rect x="935" y="188" width="20" height="70" rx="2" fill="#a8afff"/><path d="M985 147L985 277" stroke="#a8afff" stroke-width="2" fill="none"/><rect x="975" y="172" width="20" height="85" rx="2" fill="#a8afff"/><path d="M1025 131L1025 276" stroke="#a8afff" stroke-width="2" fill="none"/><rect x="1015" y="156" width="20" height="100" rx="2" fill="#a8afff"/><text x="590" y="465" font-family="DejaVu Sans,Arial,sans-serif" font-weight="600" font-size="32" fill="#efc778">ASSET</text><text x="850" y="465" font-family="DejaVu Sans,Arial,sans-serif" font-weight="600" font-size="32" fill="#a8afff">MARGIN</text></svg>