<svg xmlns="http://www.w3.org/2000/svg" width="1200" height="675" viewBox="0 0 1200 675"><defs><radialGradient id="bg"><stop stop-color="#1b3b50"/><stop offset="1" stop-color="#0d1526"/></radialGradient><pattern id="grid" width="50" height="50" patternUnits="userSpaceOnUse"><path d="M50 0H0V50" stroke="#8baaff" stroke-opacity=".065" fill="none"/></pattern></defs><rect width="1200" height="675" fill="url(#bg)"/><rect width="1200" height="675" fill="url(#grid)"/><circle cx="860" cy="320" r="255" stroke="#456787" stroke-opacity=".35" fill="none"/><circle cx="860" cy="320" r="285" stroke="#456787" stroke-opacity=".15" fill="none"/><text x="64" y="78" font-family="DejaVu Sans,Arial,sans-serif" font-weight="600" font-size="18" fill="#72e7cf">COINVOYU / TAIWAN</text><text x="64" y="260" font-family="DejaVu Sans,Arial,sans-serif" font-weight="600" font-size="52" fill="#f2f6ff">CRYPTO EXCHANGE</text><text x="64" y="325" font-family="DejaVu Sans,Arial,sans-serif" font-weight="600" font-size="18" fill="#9fb6d0">CEX / DEX / FEES</text><path d="M64 365h85" stroke="#72e7cf" stroke-width="4"/><text x="64" y="560" font-family="DejaVu Sans,Arial,sans-serif" font-weight="600" font-size="14" fill="#839ab4">LEARN  ·  UNDERSTAND  ·  VERIFY</text><text x="64" y="609" font-family="DejaVu Sans,Arial,sans-serif" font-weight="600" font-size="14" fill="#839ab4">23 / EDITORIAL GUIDE</text><rect x="760" y="245" width="210" height="145" rx="24" fill="#152840" stroke="#72e7cf" stroke-width="3"/><text x="790" y="329" font-family="DejaVu Sans,Arial,sans-serif" font-weight="600" font-size="32" fill="#72e7cf">EXCHANGE</text><rect x="590" y="140" width="120" height="76" rx="16" fill="#182c46" stroke="#7c8cff"/><text x="620" y="188" font-family="DejaVu Sans,Arial,sans-serif" font-weight="600" font-size="20" fill="#b9c8ff">WALLET</text><rect x="1010" y="140" width="120" height="76" rx="16" fill="#182c46" stroke="#efc778"/><text x="1034" y="188" font-family="DejaVu Sans,Arial,sans-serif" font-weight="600" font-size="20" fill="#efc778">MARKET</text><rect x="800" y="455" width="130" height="76" rx="16" fill="#182c46" stroke="#72e7cf"/><text x="814" y="503" font-family="DejaVu Sans,Arial,sans-serif" font-weight="600" font-size="20" fill="#72e7cf">NETWORK</text><path d="M710 190L780 260M1010 190L950 260M865 390V455" stroke="#607895" stroke-width="3"/></svg>
